<svg xmlns="http://www.w3.org/2000/svg" width="1920" height="1080"><path d="M958,541L803,543L790,687Z" fill="#db442e" stroke="#db442e" stroke-width="1.51"/><path d="M790,687L983,739L958,541Z" fill="#d84733" stroke="#d84733" stroke-width="1.51"/><path d="M983,739L1109,736L958,541Z" fill="#d54a36" stroke="#d54a36" stroke-width="1.51"/><path d="M958,541L923,358L803,543Z" fill="#df412b" stroke="#df412b" stroke-width="1.51"/><path d="M1111,386L923,358L958,541Z" fill="#df432f" stroke="#df432f" stroke-width="1.51"/><path d="M923,358L814,340L803,543Z" fill="#e44433" stroke="#e44433" stroke-width="1.51"/><path d="M534,522L585,780L790,687Z" fill="#e14e41" stroke="#e14e41" stroke-width="1.51"/><path d="M1109,736L1157,518L958,541Z" fill="#d64731" stroke="#d64731" stroke-width="1.51"/><path d="M1157,518L1111,386L958,541Z" fill="#db452f" stroke="#db452f" stroke-width="1.51"/><path d="M935,133L780,169L814,340Z" fill="#ee4b3f" stroke="#ee4b3f" stroke-width="1.51"/><path d="M534,522L790,687L803,543Z" fill="#e04635" stroke="#e04635" stroke-width="1.51"/><path d="M790,687L748,940L983,739Z" fill="#d75246" stroke="#d75246" stroke-width="1.51"/><path d="M983,739L1116,952L1109,736Z" fill="#d0554a" stroke="#d0554a" stroke-width="1.51"/><path d="M585,780L748,940L790,687Z" fill="#db564e" stroke="#db564e" stroke-width="1.51"/><path d="M559,378L534,522L803,543Z" fill="#e84739" stroke="#e84739" stroke-width="1.51"/><path d="M748,940L1002,966L983,739Z" fill="#d34d3d" stroke="#d34d3d" stroke-width="1.51"/><path d="M1002,966L1116,952L983,739Z" fill="#cf4f3f" stroke="#cf4f3f" stroke-width="1.51"/><path d="M1109,736L1385,582L1157,518Z" fill="#d34d3d" stroke="#d34d3d" stroke-width="1.51"/><path d="M814,340L559,378L803,543Z" fill="#e94839" stroke="#e94839" stroke-width="1.51"/><path d="M814,340L579,164L559,378Z" fill="#f44e49" stroke="#f44e49" stroke-width="1.51"/><path d="M935,133L814,340L923,358Z" fill="#ec493e" stroke="#ec493e" stroke-width="1.51"/><path d="M748,940L932,1155L1002,966Z" fill="#d0432f" stroke="#d0432f" stroke-width="1.51"/><path d="M585,780L539,945L748,940Z" fill="#dc534b" stroke="#dc534b" stroke-width="1.51"/><path d="M389,725L539,945L585,780Z" fill="#e15b59" stroke="#e15b59" stroke-width="1.51"/><path d="M1111,386L935,133L923,358Z" fill="#e8483b" stroke="#e8483b" stroke-width="1.51"/><path d="M534,522L389,725L585,780Z" fill="#e5524a" stroke="#e5524a" stroke-width="1.51"/><path d="M366,555L389,725L534,522Z" fill="#e74d41" stroke="#e74d41" stroke-width="1.51"/><path d="M1377,775L1385,582L1109,736Z" fill="#d0564b" stroke="#d0564b" stroke-width="1.51"/><path d="M1157,518L1347,366L1111,386Z" fill="#dd4d3d" stroke="#dd4d3d" stroke-width="1.51"/><path d="M1111,386L1193,177L935,133Z" fill="#e74e41" stroke="#e74e41" stroke-width="1.51"/><path d="M1116,952L1377,775L1109,736Z" fill="#ce5952" stroke="#ce5952" stroke-width="1.51"/><path d="M344,373L366,555L534,522Z" fill="#ed4b3e" stroke="#ed4b3e" stroke-width="1.51"/><path d="M344,373L534,522L559,378Z" fill="#f14c45" stroke="#f14c45" stroke-width="1.51"/><path d="M541,1101L752,1131L748,940Z" fill="#d74536" stroke="#d74536" stroke-width="1.51"/><path d="M1002,966L1123,1145L1116,952Z" fill="#cc4734" stroke="#cc4734" stroke-width="1.51"/><path d="M1385,582L1347,366L1157,518Z" fill="#d74d3d" stroke="#d74d3d" stroke-width="1.51"/><path d="M752,1131L932,1155L748,940Z" fill="#d2412d" stroke="#d2412d" stroke-width="1.51"/><path d="M1116,952L1382,955L1377,775Z" fill="#cb5850" stroke="#cb5850" stroke-width="1.51"/><path d="M1347,366L1193,177L1111,386Z" fill="#e35148" stroke="#e35148" stroke-width="1.51"/><path d="M780,169L579,164L814,340Z" fill="#f24e45" stroke="#f24e45" stroke-width="1.51"/><path d="M609,-5L579,164L780,169Z" fill="#f35143" stroke="#f35143" stroke-width="1.51"/><path d="M932,1155L1123,1145L1002,966Z" fill="#cc4029" stroke="#cc4029" stroke-width="1.51"/><path d="M539,945L541,1101L748,940Z" fill="#db4b40" stroke="#db4b40" stroke-width="1.51"/><path d="M387,1098L541,1101L539,945Z" fill="#de4a40" stroke="#de4a40" stroke-width="1.51"/><path d="M366,132L344,373L559,378Z" fill="#f9534f" stroke="#f9534f" stroke-width="1.51"/><path d="M1580,561L1501,380L1385,582Z" fill="#d35042" stroke="#d35042" stroke-width="1.51"/><path d="M1373,1094L1382,955L1116,952Z" fill="#ca5143" stroke="#ca5143" stroke-width="1.51"/><path d="M389,725L344,912L539,945Z" fill="#e15854" stroke="#e15854" stroke-width="1.51"/><path d="M175,763L344,912L389,725Z" fill="#e25c56" stroke="#e25c56" stroke-width="1.51"/><path d="M214,539L389,725L366,555Z" fill="#e74e3f" stroke="#e74e3f" stroke-width="1.51"/><path d="M1347,366L1341,184L1193,177Z" fill="#e45750" stroke="#e45750" stroke-width="1.51"/><path d="M781,-80L780,169L935,133Z" fill="#ec4d39" stroke="#ec4d39" stroke-width="1.51"/><path d="M1501,380L1341,184L1347,366Z" fill="#e15954" stroke="#e15954" stroke-width="1.51"/><path d="M1550,716L1385,582L1377,775Z" fill="#cd5b54" stroke="#cd5b54" stroke-width="1.51"/><path d="M1385,582L1501,380L1347,366Z" fill="#d85449" stroke="#d85449" stroke-width="1.51"/><path d="M932,1155L938,1290L1123,1145Z" fill="#cc3f28" stroke="#cc3f28" stroke-width="1.51"/><path d="M1123,1145L1373,1094L1116,952Z" fill="#ca4838" stroke="#ca4838" stroke-width="1.51"/><path d="M768,1333L938,1290L932,1155Z" fill="#cf3f29" stroke="#cf3f29" stroke-width="1.51"/><path d="M768,1333L932,1155L752,1131Z" fill="#d1402c" stroke="#d1402c" stroke-width="1.51"/><path d="M344,373L214,539L366,555Z" fill="#ec4b3b" stroke="#ec4b3b" stroke-width="1.51"/><path d="M1512,896L1550,716L1377,775Z" fill="#ca5f5e" stroke="#ca5f5e" stroke-width="1.51"/><path d="M1382,955L1512,896L1377,775Z" fill="#c95e5a" stroke="#c95e5a" stroke-width="1.51"/><path d="M1164,1272L1373,1094L1123,1145Z" fill="#c94837" stroke="#c94837" stroke-width="1.51"/><path d="M579,164L366,132L559,378Z" fill="#fa5350" stroke="#fa5350" stroke-width="1.51"/><path d="M344,373L216,321L214,539Z" fill="#f14f41" stroke="#f14f41" stroke-width="1.51"/><path d="M781,-80L609,-5L780,169Z" fill="#ef503c" stroke="#ef503c" stroke-width="1.51"/><path d="M979,-56L935,133L1200,-14Z" fill="#e54e36" stroke="#e54e36" stroke-width="1.51"/><path d="M1200,-14L935,133L1193,177Z" fill="#e5503d" stroke="#e5503d" stroke-width="1.51"/><path d="M579,1321L768,1333L752,1131Z" fill="#d64332" stroke="#d64332" stroke-width="1.51"/><path d="M344,912L387,1098L539,945Z" fill="#df5046" stroke="#df5046" stroke-width="1.51"/><path d="M158,1132L387,1098L344,912Z" fill="#dd4b3d" stroke="#dd4b3d" stroke-width="1.51"/><path d="M1566,1141L1512,896L1382,955Z" fill="#c7544b" stroke="#c7544b" stroke-width="1.51"/><path d="M1550,716L1580,561L1385,582Z" fill="#cf5448" stroke="#cf5448" stroke-width="1.51"/><path d="M938,1290L1164,1272L1123,1145Z" fill="#cb422d" stroke="#cb422d" stroke-width="1.51"/><path d="M979,-56L781,-80L935,133Z" fill="#e94d32" stroke="#e94d32" stroke-width="1.51"/><path d="M414,-40L366,132L579,164Z" fill="#f9554b" stroke="#f9554b" stroke-width="1.51"/><path d="M1391,-19L1200,-14L1341,184Z" fill="#e25949" stroke="#e25949" stroke-width="1.51"/><path d="M1341,184L1200,-14L1193,177Z" fill="#e45648" stroke="#e45648" stroke-width="1.51"/><path d="M938,1290L768,1333L1164,1272Z" fill="#cc3d25" stroke="#cc3d25" stroke-width="1.51"/><path d="M579,1321L752,1131L541,1101Z" fill="#d94436" stroke="#d94436" stroke-width="1.51"/><path d="M214,539L175,763L389,725Z" fill="#e55446" stroke="#e55446" stroke-width="1.51"/><path d="M214,539L18,773L175,763Z" fill="#e45545" stroke="#e45545" stroke-width="1.51"/><path d="M366,132L216,321L344,373Z" fill="#fa544f" stroke="#fa544f" stroke-width="1.51"/><path d="M397,1281L579,1321L541,1101Z" fill="#dd473c" stroke="#dd473c" stroke-width="1.51"/><path d="M175,763L147,918L344,912Z" fill="#e0594f" stroke="#e0594f" stroke-width="1.51"/><path d="M387,1098L397,1281L541,1101Z" fill="#de483c" stroke="#de483c" stroke-width="1.51"/><path d="M18,773L147,918L175,763Z" fill="#e05d51" stroke="#e05d51" stroke-width="1.51"/><path d="M1501,380L1535,144L1341,184Z" fill="#e25c58" stroke="#e25c58" stroke-width="1.51"/><path d="M1726,302L1535,144L1501,380Z" fill="#e05651" stroke="#e05651" stroke-width="1.51"/><path d="M366,132L209,111L216,321Z" fill="#f9564b" stroke="#f9564b" stroke-width="1.51"/><path d="M609,-5L414,-40L579,164Z" fill="#f75447" stroke="#f75447" stroke-width="1.51"/><path d="M550,-213L414,-40L609,-5Z" fill="#f75546" stroke="#f75546" stroke-width="1.51"/><path d="M1580,561L1706,560L1501,380Z" fill="#d24d3d" stroke="#d24d3d" stroke-width="1.51"/><path d="M1550,716L1688,720L1580,561Z" fill="#cd5347" stroke="#cd5347" stroke-width="1.51"/><path d="M1512,896L1688,720L1550,716Z" fill="#c95b55" stroke="#c95b55" stroke-width="1.51"/><path d="M1739,889L1688,720L1512,896Z" fill="#c85953" stroke="#c85953" stroke-width="1.51"/><path d="M1164,1272L1369,1278L1373,1094Z" fill="#c84b3c" stroke="#c84b3c" stroke-width="1.51"/><path d="M1373,1094L1566,1141L1382,955Z" fill="#c65247" stroke="#c65247" stroke-width="1.51"/><path d="M1569,1312L1369,1278L1164,1272Z" fill="#c74e41" stroke="#c74e41" stroke-width="1.51"/><path d="M232,1311L397,1281L387,1098Z" fill="#dd493a" stroke="#dd493a" stroke-width="1.51"/><path d="M992,-262L781,-80L979,-56Z" fill="#e84c31" stroke="#e84c31" stroke-width="1.51"/><path d="M992,-262L725,-200L781,-80Z" fill="#eb4e36" stroke="#eb4e36" stroke-width="1.51"/><path d="M1535,144L1391,-19L1341,184Z" fill="#e15d53" stroke="#e15d53" stroke-width="1.51"/><path d="M1688,720L1706,560L1580,561Z" fill="#ce4e3e" stroke="#ce4e3e" stroke-width="1.51"/><path d="M781,-80L725,-200L609,-5Z" fill="#f0513d" stroke="#f0513d" stroke-width="1.51"/><path d="M992,-262L979,-56L1121,-266Z" fill="#e54e34" stroke="#e54e34" stroke-width="1.51"/><path d="M201,3L209,111L366,132Z" fill="#f85747" stroke="#f85747" stroke-width="1.51"/><path d="M-22,496L18,773L214,539Z" fill="#e54f38" stroke="#e54f38" stroke-width="1.51"/><path d="M1369,1278L1566,1141L1373,1094Z" fill="#c65045" stroke="#c65045" stroke-width="1.51"/><path d="M147,918L158,1132L344,912Z" fill="#de5041" stroke="#de5041" stroke-width="1.51"/><path d="M-22,496L214,539L216,321Z" fill="#ee4e3a" stroke="#ee4e3a" stroke-width="1.51"/><path d="M26,972L158,1132L147,918Z" fill="#dd503d" stroke="#dd503d" stroke-width="1.51"/><path d="M1121,-266L979,-56L1200,-14Z" fill="#e55139" stroke="#e55139" stroke-width="1.51"/><path d="M1566,1141L1739,889L1512,896Z" fill="#c65146" stroke="#c65146" stroke-width="1.51"/><path d="M1688,720L1912,760L1706,560Z" fill="#ca4d3f" stroke="#ca4d3f" stroke-width="1.51"/><path d="M992,-262L550,-213L725,-200Z" fill="#ee503a" stroke="#ee503a" stroke-width="1.51"/><path d="M725,-200L550,-213L609,-5Z" fill="#f35341" stroke="#f35341" stroke-width="1.51"/><path d="M414,-40L201,3L366,132Z" fill="#f85746" stroke="#f85746" stroke-width="1.51"/><path d="M1535,144L1570,-12L1391,-19Z" fill="#df5c4e" stroke="#df5c4e" stroke-width="1.51"/><path d="M1706,560L1726,302L1501,380Z" fill="#d74e41" stroke="#d74e41" stroke-width="1.51"/><path d="M1917,320L1726,302L1706,560Z" fill="#d7493b" stroke="#d7493b" stroke-width="1.51"/><path d="M-50,329L-22,496L216,321Z" fill="#f2513f" stroke="#f2513f" stroke-width="1.51"/><path d="M1358,-274L1121,-266L1200,-14Z" fill="#e35642" stroke="#e35642" stroke-width="1.51"/><path d="M-23,147L-50,329L216,321Z" fill="#f95649" stroke="#f95649" stroke-width="1.51"/><path d="M212,-238L201,3L414,-40Z" fill="#f75844" stroke="#f75844" stroke-width="1.51"/><path d="M18,773L26,972L147,918Z" fill="#df5849" stroke="#df5849" stroke-width="1.51"/><path d="M14,1124L26,972L-192,911Z" fill="#dc503b" stroke="#dc503b" stroke-width="1.51"/><path d="M1726,302L1695,169L1535,144Z" fill="#e0544b" stroke="#e0544b" stroke-width="1.51"/><path d="M1391,-19L1358,-274L1200,-14Z" fill="#e25a48" stroke="#e25a48" stroke-width="1.51"/><path d="M1695,169L1570,-12L1535,144Z" fill="#df574a" stroke="#df574a" stroke-width="1.51"/><path d="M158,1132L232,1311L387,1098Z" fill="#dc4938" stroke="#dc4938" stroke-width="1.51"/><path d="M397,1281L232,1311L579,1321Z" fill="#dd483c" stroke="#dd483c" stroke-width="1.51"/><path d="M579,1321L-170,1321L768,1333Z" fill="#dd483b" stroke="#dd483b" stroke-width="1.51"/><path d="M6,1299L232,1311L158,1132Z" fill="#dc4a35" stroke="#dc4a35" stroke-width="1.51"/><path d="M768,1333L1569,1312L1164,1272Z" fill="#ca4633" stroke="#ca4633" stroke-width="1.51"/><path d="M1369,1278L1569,1312L1566,1141Z" fill="#c54e42" stroke="#c54e42" stroke-width="1.51"/><path d="M1566,1141L1758,1146L1739,889Z" fill="#c44839" stroke="#c44839" stroke-width="1.51"/><path d="M-192,911L26,972L18,773Z" fill="#de5948" stroke="#de5948" stroke-width="1.51"/><path d="M-23,147L216,321L209,111Z" fill="#f85648" stroke="#f85648" stroke-width="1.51"/><path d="M-172,772L18,773L-182,567Z" fill="#e25743" stroke="#e25743" stroke-width="1.51"/><path d="M26,972L14,1124L158,1132Z" fill="#db4b34" stroke="#db4b34" stroke-width="1.51"/><path d="M1491,-205L1358,-274L1391,-19Z" fill="#e05d4f" stroke="#e05d4f" stroke-width="1.51"/><path d="M1121,-266L368,-260L992,-262Z" fill="#eb4e36" stroke="#eb4e36" stroke-width="1.51"/><path d="M1569,1312L1758,1146L1566,1141Z" fill="#c4493a" stroke="#c4493a" stroke-width="1.51"/><path d="M1739,889L1912,760L1688,720Z" fill="#c8554b" stroke="#c8554b" stroke-width="1.51"/><path d="M32,-27L-23,147L209,111Z" fill="#f75842" stroke="#f75842" stroke-width="1.51"/><path d="M550,-213L368,-260L414,-40Z" fill="#f85647" stroke="#f85647" stroke-width="1.51"/><path d="M992,-262L368,-260L550,-213Z" fill="#f35340" stroke="#f35340" stroke-width="1.51"/><path d="M1358,-274L368,-260L1121,-266Z" fill="#e74b30" stroke="#e74b30" stroke-width="1.51"/><path d="M32,-27L209,111L201,3Z" fill="#f75842" stroke="#f75842" stroke-width="1.51"/><path d="M1736,-185L1491,-205L1570,-12Z" fill="#de5846" stroke="#de5846" stroke-width="1.51"/><path d="M1570,-12L1491,-205L1391,-19Z" fill="#df5d4e" stroke="#df5d4e" stroke-width="1.51"/><path d="M1931,898L1912,760L1739,889Z" fill="#c55045" stroke="#c55045" stroke-width="1.51"/><path d="M1927,-43L1708,-45L1695,169Z" fill="#dd503d" stroke="#dd503d" stroke-width="1.51"/><path d="M1695,169L1708,-45L1570,-12Z" fill="#de5544" stroke="#de5544" stroke-width="1.51"/><path d="M1917,195L1695,169L1726,302Z" fill="#df4f44" stroke="#df4f44" stroke-width="1.51"/><path d="M-182,567L-22,496L-163,307Z" fill="#ec4f37" stroke="#ec4f37" stroke-width="1.51"/><path d="M-182,567L18,773L-22,496Z" fill="#e55038" stroke="#e55038" stroke-width="1.51"/><path d="M-163,307L-22,496L-50,329Z" fill="#f1523f" stroke="#f1523f" stroke-width="1.51"/><path d="M212,-238L32,-27L201,3Z" fill="#f65841" stroke="#f65841" stroke-width="1.51"/><path d="M-23,147L-163,307L-50,329Z" fill="#f85648" stroke="#f85648" stroke-width="1.51"/><path d="M1912,760L1949,518L1706,560Z" fill="#cb4532" stroke="#cb4532" stroke-width="1.51"/><path d="M1949,518L1917,320L1706,560Z" fill="#d24330" stroke="#d24330" stroke-width="1.51"/><path d="M1908,1073L1931,898L1739,889Z" fill="#c4493a" stroke="#c4493a" stroke-width="1.51"/><path d="M1912,760L2070,548L1949,518Z" fill="#cb422d" stroke="#cb422d" stroke-width="1.51"/><path d="M368,-260L212,-238L414,-40Z" fill="#f75745" stroke="#f75745" stroke-width="1.51"/><path d="M-188,152L-163,307L-23,147Z" fill="#f85746" stroke="#f85746" stroke-width="1.51"/><path d="M14,1124L6,1299L158,1132Z" fill="#db4a34" stroke="#db4a34" stroke-width="1.51"/><path d="M-170,1321L6,1299L14,1124Z" fill="#db4b32" stroke="#db4b32" stroke-width="1.51"/><path d="M-172,772L-192,911L18,773Z" fill="#df5e4f" stroke="#df5e4f" stroke-width="1.51"/><path d="M-182,567L-192,911L-172,772Z" fill="#e15a49" stroke="#e15a49" stroke-width="1.51"/><path d="M1758,1146L1908,1073L1739,889Z" fill="#c44635" stroke="#c44635" stroke-width="1.51"/><path d="M1569,1312L1741,1339L1758,1146Z" fill="#c44736" stroke="#c44736" stroke-width="1.51"/><path d="M768,1333L1741,1339L1569,1312Z" fill="#c74e40" stroke="#c74e40" stroke-width="1.51"/><path d="M1917,320L1917,195L1726,302Z" fill="#df4b41" stroke="#df4b41" stroke-width="1.51"/><path d="M2098,155L1917,195L1917,320Z" fill="#dd483b" stroke="#dd483b" stroke-width="1.51"/><path d="M1887,1324L1908,1073L1758,1146Z" fill="#c2402d" stroke="#c2402d" stroke-width="1.51"/><path d="M-182,567L-229,1137L-192,911Z" fill="#df5a4a" stroke="#df5a4a" stroke-width="1.51"/><path d="M-163,307L-188,152L-182,567Z" fill="#f45342" stroke="#f45342" stroke-width="1.51"/><path d="M-191,-63L-188,152L-23,147Z" fill="#f65841" stroke="#f65841" stroke-width="1.51"/><path d="M-191,-63L-23,147L32,-27Z" fill="#f5593e" stroke="#f5593e" stroke-width="1.51"/><path d="M1927,-43L1736,-185L1708,-45Z" fill="#dc503b" stroke="#dc503b" stroke-width="1.51"/><path d="M1708,-45L1736,-185L1570,-12Z" fill="#dd5542" stroke="#dd5542" stroke-width="1.51"/><path d="M1491,-205L1736,-185L1358,-274Z" fill="#df5b4b" stroke="#df5b4b" stroke-width="1.51"/><path d="M1949,518L2159,336L1917,320Z" fill="#d64332" stroke="#d64332" stroke-width="1.51"/><path d="M2112,779L2070,548L1912,760Z" fill="#c94938" stroke="#c94938" stroke-width="1.51"/><path d="M2112,779L1912,760L1931,898Z" fill="#c65045" stroke="#c65045" stroke-width="1.51"/><path d="M-192,911L-229,1137L14,1124Z" fill="#db4c35" stroke="#db4c35" stroke-width="1.51"/><path d="M-188,152L-229,1137L-182,567Z" fill="#e55139" stroke="#e55139" stroke-width="1.51"/><path d="M2163,918L2112,779L1931,898Z" fill="#c54d3f" stroke="#c54d3f" stroke-width="1.51"/><path d="M1741,1339L1887,1324L1758,1146Z" fill="#c34230" stroke="#c34230" stroke-width="1.51"/><path d="M1917,195L1927,-43L1695,169Z" fill="#dd4d3b" stroke="#dd4d3b" stroke-width="1.51"/><path d="M2098,155L1927,-43L1917,195Z" fill="#dc4a37" stroke="#dc4a37" stroke-width="1.51"/><path d="M2081,1086L1931,898L1908,1073Z" fill="#c2422f" stroke="#c2422f" stroke-width="1.51"/><path d="M212,-238L-44,-217L32,-27Z" fill="#f6593f" stroke="#f6593f" stroke-width="1.51"/><path d="M-157,-243L-44,-217L212,-238Z" fill="#f5593d" stroke="#f5593d" stroke-width="1.51"/><path d="M6,1299L-170,1321L232,1311Z" fill="#db4b33" stroke="#db4b33" stroke-width="1.51"/><path d="M232,1311L-170,1321L579,1321Z" fill="#dc4937" stroke="#dc4937" stroke-width="1.51"/><path d="M-229,1137L-170,1321L14,1124Z" fill="#db4b32" stroke="#db4b32" stroke-width="1.51"/><path d="M-44,-217L-191,-63L32,-27Z" fill="#f5593d" stroke="#f5593d" stroke-width="1.51"/><path d="M-188,152L-191,-63L-229,1137Z" fill="#ef513c" stroke="#ef513c" stroke-width="1.51"/><path d="M2094,1268L2081,1086L1908,1073Z" fill="#c13d28" stroke="#c13d28" stroke-width="1.51"/><path d="M2159,336L1949,518L2070,548Z" fill="#d1402b" stroke="#d1402b" stroke-width="1.51"/><path d="M2159,336L2098,155L1917,320Z" fill="#de483d" stroke="#de483d" stroke-width="1.51"/><path d="M2163,918L2159,336L2112,779Z" fill="#ca4836" stroke="#ca4836" stroke-width="1.51"/><path d="M2112,779L2159,336L2070,548Z" fill="#cc3e27" stroke="#cc3e27" stroke-width="1.51"/><path d="M2074,-186L1912,-193L1927,-43Z" fill="#db4b32" stroke="#db4b32" stroke-width="1.51"/><path d="M1927,-43L1912,-193L1736,-185Z" fill="#db4d36" stroke="#db4d36" stroke-width="1.51"/><path d="M1736,-185L1912,-193L1358,-274Z" fill="#dd5542" stroke="#dd5542" stroke-width="1.51"/><path d="M2081,1086L2163,918L1931,898Z" fill="#c34534" stroke="#c34534" stroke-width="1.51"/><path d="M-44,-217L-157,-243L-191,-63Z" fill="#f5593d" stroke="#f5593d" stroke-width="1.51"/><path d="M368,-260L-157,-243L212,-238Z" fill="#f65841" stroke="#f65841" stroke-width="1.51"/><path d="M2081,1086L2094,1268L2163,918Z" fill="#c13d28" stroke="#c13d28" stroke-width="1.51"/><path d="M1887,1324L2094,1268L1908,1073Z" fill="#c13d28" stroke="#c13d28" stroke-width="1.51"/><path d="M2098,155L2124,-19L1927,-43Z" fill="#db4a34" stroke="#db4a34" stroke-width="1.51"/><path d="M2159,336L2124,-19L2098,155Z" fill="#dd4939" stroke="#dd4939" stroke-width="1.51"/><path d="M2124,-19L2074,-186L1927,-43Z" fill="#db4b32" stroke="#db4b32" stroke-width="1.51"/><path d="M1912,-193L2074,-186L1358,-274Z" fill="#dc503b" stroke="#dc503b" stroke-width="1.51"/></svg>